# xmcd
#
# Track frame offsets:
#	150
#	10202
#	21341
#	33624
#	43672
#	56236
#	68837
#	80382
#	93184
#	105829
#	118814
#	132544
#	142214
#	149740
#	151934
#	166463
#	180039
#	189710
#
# Disc length: 2703 seconds
#
# Revision: 1
# Processed by: cddbd v1.4PL0 Copyright (c) Steve Scherf et al.
# Submitted via: audiograbber 1.81.03
#
DISCID=fe0a8d12
DTITLE=Roy Orbison - Gold
DYEAR=2000
DGENRE=
TTITLE0=Ooby Dooby
TTITLE1=Only The Lonely
TTITLE2=Working For The Man
TTITLE3=Running Scared
TTITLE4=Dream Baby (How Long Must I Dream)
TTITLE5=Crying
TTITLE6=Claudette
TTITLE7=In Dreams
TTITLE8=Blue Bayou
TTITLE9=It's Over
TTITLE10=Oh, Pretty Woman
TTITLE11=Go, Go, Go (Down The Line)
TTITLE12=Sunglasses
TTITLE13=Being Remembered
TTITLE14=Crawling Back
TTITLE15=Communication Breakdown
TTITLE16=Breaking Up Is Breaking My Heart
TTITLE17=Walk On
EXTD=
EXTT0=
EXTT1=
EXTT2=
EXTT3=
EXTT4=
EXTT5=
EXTT6=
EXTT7=
EXTT8=
EXTT9=
EXTT10=
EXTT11=
EXTT12=
EXTT13=
EXTT14=
EXTT15=
EXTT16=
EXTT17=
PLAYORDER=
